<?xml version="1.0" encoding="UTF-8"?>
<svg xmlns="http://www.w3.org/2000/svg" width="269.754" height="54.984" viewBox="0 0 269.754 54.984">
  <path id="logo" d="M6.293-51.715h5.273v19.406L32.2-51.715h7l-24.855,23.2L41.133,0H34.277L11.566-24.117V0H6.293ZM49.746-54a3.929,3.929,0,0,1,2.883,1.2,3.929,3.929,0,0,1,1.2,2.883,3.888,3.888,0,0,1-1.2,2.848,3.929,3.929,0,0,1-2.883,1.2,3.888,3.888,0,0,1-2.848-1.2,3.888,3.888,0,0,1-1.2-2.848A3.929,3.929,0,0,1,46.9-52.8,3.888,3.888,0,0,1,49.746-54ZM47.285-38.25h4.957V0H47.285Zm15.117,0h4.887v6.609a19.049,19.049,0,0,1,5.273-5.344,14.938,14.938,0,0,1,7.84-2.25,13.037,13.037,0,0,1,5.273,1.09,11.337,11.337,0,0,1,4.078,2.9A15.562,15.562,0,0,1,92.5-30.059,18.182,18.182,0,0,1,98.648-36.9a14.58,14.58,0,0,1,7.945-2.338,12.454,12.454,0,0,1,7.014,2,11.954,11.954,0,0,1,4.518,5.59q1.477,3.586,1.477,10.758V0h-5.027V-20.883q0-6.152-.879-8.455a7.62,7.62,0,0,0-3.006-3.709,9,9,0,0,0-5.08-1.406,11.073,11.073,0,0,0-6.557,2.109,12.142,12.142,0,0,0-4.342,5.625Q93.34-23.2,93.34-14.977V0H88.453V-19.582q0-6.926-.861-9.4a7.875,7.875,0,0,0-3.006-3.973,8.692,8.692,0,0,0-5.1-1.494A11,11,0,0,0,73.107-32.4a12.177,12.177,0,0,0-4.395,5.537q-1.424,3.48-1.424,10.652V0H62.4Zm67.535,0h4.887v6.609a19.049,19.049,0,0,1,5.273-5.344,14.938,14.938,0,0,1,7.84-2.25,13.037,13.037,0,0,1,5.273,1.09,11.337,11.337,0,0,1,4.078,2.9,15.562,15.562,0,0,1,2.742,5.186,18.182,18.182,0,0,1,6.152-6.838,14.58,14.58,0,0,1,7.945-2.338,12.454,12.454,0,0,1,7.014,2,11.954,11.954,0,0,1,4.518,5.59q1.477,3.586,1.477,10.758V0h-5.027V-20.883q0-6.152-.879-8.455a7.62,7.62,0,0,0-3.006-3.709,9,9,0,0,0-5.08-1.406,11.073,11.073,0,0,0-6.557,2.109,12.142,12.142,0,0,0-4.342,5.625q-1.371,3.516-1.371,11.742V0h-4.887V-19.582q0-6.926-.861-9.4a7.875,7.875,0,0,0-3.006-3.973,8.692,8.692,0,0,0-5.1-1.494,11,11,0,0,0-6.381,2.057,12.177,12.177,0,0,0-4.395,5.537q-1.424,3.48-1.424,10.652V0h-4.887Zm105.68,0V0h-4.852V-6.574a21.1,21.1,0,0,1-6.943,5.66,18.774,18.774,0,0,1-8.42,1.9A18.676,18.676,0,0,1,201.533-4.9a19.744,19.744,0,0,1-5.748-14.326,19.383,19.383,0,0,1,5.8-14.133,18.914,18.914,0,0,1,13.957-5.871,18.048,18.048,0,0,1,8.525,2,19.4,19.4,0,0,1,6.7,6.012V-38.25ZM215.93-34.488a14.854,14.854,0,0,0-7.594,2.021,14.823,14.823,0,0,0-5.537,5.678,15.54,15.54,0,0,0-2.057,7.734,15.567,15.567,0,0,0,2.074,7.734,15.1,15.1,0,0,0,5.572,5.748,14.561,14.561,0,0,0,7.506,2.057,15.386,15.386,0,0,0,7.664-2.039,14.259,14.259,0,0,0,5.572-5.52,15.753,15.753,0,0,0,1.951-7.84,15.239,15.239,0,0,0-4.377-11.109A14.5,14.5,0,0,0,215.93-34.488Zm26.4-3.762h5.906l10.125,14.168L268.488-38.25h5.906L261.316-20.074,276.047,0H270.07L258.363-16.066,246.832,0h-5.871l14.484-20.074Z" transform="translate(-6.293 54)" fill="#00976a"/>
</svg>
