<?xml version="1.0" encoding="UTF-8" standalone="no"?><!-- Generator: Gravit.io --><svg xmlns="http://www.w3.org/2000/svg" xmlns:xlink="http://www.w3.org/1999/xlink" style="isolation:isolate" viewBox="0 0 216 99" width="216pt" height="99pt"><defs><clipPath id="_clipPath_nI5kNy7igSjh0pNAq87VzVICfGueLLGq"><rect width="216" height="99"/></clipPath></defs><g clip-path="url(#_clipPath_nI5kNy7igSjh0pNAq87VzVICfGueLLGq)"><path d=" M 23.592 54.232 L 12.308 54.232 L 9.552 62.5 L 2.22 62.5 L 15.792 24.696 L 23.072 24.696 L 36.644 62.5 L 28.948 62.5 L 19.588 34.368 L 19.172 32.444 L 18.704 34.472 L 14.284 47.94 L 13.66 48.98 L 14.44 48.876 L 18.392 48.876 L 18.392 48.876 Q 19.536 48.876 20.368 49.396 L 20.368 49.396 L 20.368 49.396 Q 21.2 49.916 21.824 50.696 L 21.824 50.696 L 21.824 50.696 Q 22.448 51.476 22.89 52.438 L 22.89 52.438 L 22.89 52.438 Q 23.332 53.4 23.592 54.232 L 23.592 54.232 L 23.592 54.232 Z  M 57.08 57.768 L 57.08 57.768 L 57.08 57.768 Q 60.044 57.768 62.202 56.52 L 62.202 56.52 L 62.202 56.52 Q 64.36 55.272 65.764 53.244 L 65.764 53.244 L 65.764 53.244 Q 67.168 51.216 67.818 48.668 L 67.818 48.668 L 67.818 48.668 Q 68.468 46.12 68.468 43.52 L 68.468 43.52 L 68.468 43.52 Q 68.468 40.452 67.66 37.852 L 67.66 37.852 L 67.66 37.852 Q 66.851 35.252 65.131 33.38 L 65.131 33.38 L 65.131 33.38 Q 63.41 31.508 60.724 30.442 L 60.724 30.442 L 60.724 30.442 Q 58.039 29.376 54.284 29.376 L 54.284 29.376 L 54.284 29.376 Q 53.242 29.376 52.12 29.48 L 52.12 29.48 L 52.12 29.48 Q 50.999 29.584 49.8 29.792 L 49.8 29.792 L 49.8 62.5 L 42.52 62.5 L 42.52 25.372 L 42.52 25.372 Q 46.004 24.644 49.02 24.332 L 49.02 24.332 L 49.02 24.332 Q 52.036 24.02 54.324 24.02 L 54.324 24.02 L 54.324 24.02 Q 59.524 24.02 63.606 25.346 L 63.606 25.346 L 63.606 25.346 Q 67.688 26.672 70.522 29.168 L 70.522 29.168 L 70.522 29.168 Q 73.356 31.664 74.838 35.278 L 74.838 35.278 L 74.838 35.278 Q 76.32 38.892 76.32 43.52 L 76.32 43.52 L 76.32 43.52 Q 76.32 47.628 74.916 51.216 L 74.916 51.216 L 74.916 51.216 Q 73.512 54.804 71.068 57.456 L 71.068 57.456 L 71.068 57.456 Q 68.624 60.108 65.218 61.616 L 65.218 61.616 L 65.218 61.616 Q 61.812 63.124 57.86 63.124 L 57.86 63.124 L 57.86 63.124 Q 57.132 63.124 56.534 63.098 L 56.534 63.098 L 56.534 63.098 Q 55.936 63.072 55.26 62.968 L 55.26 62.968 L 55.26 62.968 Q 54.584 62.864 53.778 62.708 L 53.778 62.708 L 53.778 62.708 Q 52.972 62.552 51.828 62.24 L 51.828 62.24 L 51.828 62.24 Q 52.14 61.564 52.608 60.784 L 52.608 60.784 L 52.608 60.784 Q 53.076 60.004 53.7 59.328 L 53.7 59.328 L 53.7 59.328 Q 54.324 58.652 55.156 58.21 L 55.156 58.21 L 55.156 58.21 Q 55.988 57.768 57.08 57.768 Z  M 99.98 54.232 L 88.696 54.232 L 85.94 62.5 L 78.608 62.5 L 92.18 24.696 L 99.46 24.696 L 113.032 62.5 L 105.336 62.5 L 95.976 34.368 L 95.56 32.444 L 95.092 34.472 L 90.672 47.94 L 90.048 48.98 L 90.828 48.876 L 94.78 48.876 L 94.78 48.876 Q 95.924 48.876 96.756 49.396 L 96.756 49.396 L 96.756 49.396 Q 97.588 49.916 98.212 50.696 L 98.212 50.696 L 98.212 50.696 Q 98.836 51.476 99.278 52.438 L 99.278 52.438 L 99.278 52.438 Q 99.72 53.4 99.98 54.232 L 99.98 54.232 L 99.98 54.232 Z  M 145.636 35.824 L 145.636 35.824 L 145.636 35.824 Q 145.636 38.424 144.622 40.478 L 144.622 40.478 L 144.622 40.478 Q 143.608 42.532 141.918 44.014 L 141.918 44.014 L 141.918 44.014 Q 140.228 45.496 138.07 46.38 L 138.07 46.38 L 138.07 46.38 Q 135.912 47.264 133.572 47.472 L 133.572 47.472 L 133.572 47.472 Q 132.376 47.576 131.076 47.498 L 131.076 47.498 L 131.076 47.498 Q 129.776 47.42 128.32 47.004 L 128.32 47.004 L 128.32 47.004 Q 128.632 46.276 129.022 45.47 L 129.022 45.47 L 129.022 45.47 Q 129.412 44.664 129.958 43.988 L 129.958 43.988 L 129.958 43.988 Q 130.504 43.312 131.206 42.844 L 131.206 42.844 L 131.206 42.844 Q 131.908 42.376 132.792 42.272 L 132.792 42.272 L 132.792 42.272 Q 133.884 42.168 134.82 41.622 L 134.82 41.622 L 134.82 41.622 Q 135.756 41.076 136.458 40.218 L 136.458 40.218 L 136.458 40.218 Q 137.16 39.36 137.576 38.216 L 137.576 38.216 L 137.576 38.216 Q 137.992 37.072 137.992 35.824 L 137.992 35.824 L 137.992 35.824 Q 137.992 34.472 137.472 33.302 L 137.472 33.302 L 137.472 33.302 Q 136.952 32.132 135.99 31.248 L 135.99 31.248 L 135.99 31.248 Q 135.028 30.364 133.702 29.844 L 133.702 29.844 L 133.702 29.844 Q 132.376 29.324 130.764 29.324 L 130.764 29.324 L 130.764 29.324 Q 130.036 29.324 129.542 29.35 L 129.542 29.35 L 129.542 29.35 Q 129.048 29.376 128.58 29.402 L 128.58 29.402 L 128.58 29.402 Q 128.112 29.428 127.592 29.506 L 127.592 29.506 L 127.592 29.506 Q 127.072 29.584 126.396 29.636 L 126.396 29.636 L 126.396 62.5 L 118.908 62.5 L 118.908 25.164 L 118.908 25.164 Q 120.988 24.8 122.6 24.566 L 122.6 24.566 L 122.6 24.566 Q 124.212 24.332 125.538 24.202 L 125.538 24.202 L 125.538 24.202 Q 126.864 24.072 128.112 24.02 L 128.112 24.02 L 128.112 24.02 Q 129.36 23.968 130.764 23.968 L 130.764 23.968 L 130.764 23.968 Q 133.936 23.968 136.64 24.8 L 136.64 24.8 L 136.64 24.8 Q 139.344 25.632 141.346 27.166 L 141.346 27.166 L 141.346 27.166 Q 143.348 28.7 144.492 30.884 L 144.492 30.884 L 144.492 30.884 Q 145.636 33.068 145.636 35.824 Z  M 158.168 30.052 L 148.288 30.052 L 148.288 24.696 L 175.432 24.696 L 175.432 30.052 L 165.552 30.052 L 165.552 62.5 L 158.168 62.5 L 158.168 30.052 L 158.168 30.052 Z  M 198.728 54.232 L 187.444 54.232 L 184.688 62.5 L 177.356 62.5 L 190.928 24.696 L 198.208 24.696 L 211.78 62.5 L 204.084 62.5 L 194.724 34.368 L 194.308 32.444 L 193.84 34.472 L 189.42 47.94 L 188.796 48.98 L 189.576 48.876 L 193.528 48.876 L 193.528 48.876 Q 194.672 48.876 195.504 49.396 L 195.504 49.396 L 195.504 49.396 Q 196.336 49.916 196.96 50.696 L 196.96 50.696 L 196.96 50.696 Q 197.584 51.476 198.026 52.438 L 198.026 52.438 L 198.026 52.438 Q 198.468 53.4 198.728 54.232 L 198.728 54.232 L 198.728 54.232 Z " fill="rgb(255,255,255)"/></g></svg>