<?xml version="1.0" encoding="UTF-8" standalone="no"?><!-- Generator: Gravit.io --><svg xmlns="http://www.w3.org/2000/svg" xmlns:xlink="http://www.w3.org/1999/xlink" style="isolation:isolate" viewBox="0 0 216 99" width="216pt" height="99pt"><defs><clipPath id="_clipPath_SHgiiIGQ7zTmM2U3pvqLZU2tM7cvp4cu"><rect width="216" height="99"/></clipPath></defs><g clip-path="url(#_clipPath_SHgiiIGQ7zTmM2U3pvqLZU2tM7cvp4cu)"><path d=" M 17.097 52.269 L 17.097 15.581 L 17.097 15.581 Q 17.097 12.051 16.128 10.355 L 16.128 10.355 L 16.128 10.355 Q 15.159 8.659 12.252 8.659 L 12.252 8.659 L 11.559 8.659 L 11.559 6.582 L 30.249 6.582 L 30.249 6.582 Q 38.971 6.582 44.821 9.005 L 44.821 9.005 L 44.821 9.005 Q 50.67 11.428 50.67 18.696 L 50.67 18.696 L 50.67 18.696 Q 50.67 21.88 48.143 24.684 L 48.143 24.684 L 48.143 24.684 Q 45.617 27.487 41.048 28.664 L 41.048 28.664 L 41.048 28.664 Q 52.747 29.841 52.747 39.601 L 52.747 39.601 L 52.747 39.601 Q 52.747 46.8 47.001 49.535 L 47.001 49.535 L 47.001 49.535 Q 41.256 52.269 32.326 52.269 L 32.326 52.269 L 17.097 52.269 L 17.097 52.269 Z  M 26.096 27.28 L 31.288 27.28 L 31.288 27.28 Q 35.787 27.28 38.383 25.168 L 38.383 25.168 L 38.383 25.168 Q 40.979 23.057 40.979 18.35 L 40.979 18.35 L 40.979 18.35 Q 40.979 13.574 37.899 11.462 L 37.899 11.462 L 37.899 11.462 Q 34.818 9.351 30.249 9.351 L 30.249 9.351 L 30.249 9.351 Q 28.45 9.351 26.096 9.836 L 26.096 9.836 L 26.096 27.28 L 26.096 27.28 Z  M 31.288 49.5 L 31.288 49.5 Q 37.033 49.5 40.044 47.008 L 40.044 47.008 L 40.044 47.008 Q 43.056 44.516 43.056 39.947 L 43.056 39.947 L 43.056 39.947 Q 43.056 30.395 31.288 30.395 L 31.288 30.395 L 26.096 30.395 L 26.096 48.808 L 26.096 48.808 Q 28.519 49.5 31.288 49.5 L 31.288 49.5 L 31.288 49.5 Z  M 98.156 52.546 L 98.156 52.546 Q 93.795 52.546 90.265 50.711 L 90.265 50.711 L 90.265 50.711 Q 86.735 48.877 84.52 43.547 L 84.52 43.547 L 82.928 39.671 L 64.514 39.671 L 58.838 52.269 L 55.239 52.269 L 75.659 6.582 L 78.774 6.582 L 94.28 43.547 L 94.28 43.547 Q 96.91 49.985 101.479 50.469 L 101.479 50.469 L 101.479 52.2 L 101.479 52.2 Q 100.233 52.546 98.156 52.546 L 98.156 52.546 L 98.156 52.546 Z  M 65.968 36.556 L 81.612 36.556 L 73.998 18.489 L 65.968 36.556 L 65.968 36.556 Z  M 139.067 52.477 L 109.717 18.004 L 109.717 52.269 L 106.255 52.269 L 106.255 14.889 L 106.255 14.889 Q 106.255 11.982 104.836 10.32 L 104.836 10.32 L 104.836 10.32 Q 103.417 8.659 100.025 8.659 L 100.025 8.659 L 99.679 8.659 L 99.679 6.582 L 104.525 6.582 L 104.525 6.582 Q 108.401 6.582 110.859 7.586 L 110.859 7.586 L 110.859 7.586 Q 113.316 8.59 114.977 10.736 L 114.977 10.736 L 138.79 38.425 L 138.79 6.582 L 142.251 6.582 L 142.251 52.477 L 139.067 52.477 L 139.067 52.477 Z  M 174.716 53.653 L 174.716 53.653 Q 167.656 53.653 161.945 50.365 L 161.945 50.365 L 161.945 50.365 Q 156.234 47.077 153.015 41.366 L 153.015 41.366 L 153.015 41.366 Q 149.796 35.656 149.796 28.733 L 149.796 28.733 L 149.796 28.733 Q 149.796 22.088 152.634 16.723 L 152.634 16.723 L 152.634 16.723 Q 155.472 11.359 160.699 8.278 L 160.699 8.278 L 160.699 8.278 Q 165.925 5.198 172.64 5.198 L 172.64 5.198 L 172.64 5.198 Q 178.731 5.198 183.023 6.79 L 183.023 6.79 L 183.023 6.79 Q 187.315 8.382 189.391 10.805 L 189.391 10.805 L 189.391 10.805 Q 190.568 12.328 190.88 14.681 L 190.88 14.681 L 190.88 14.681 Q 191.191 17.035 191.191 20.427 L 191.191 20.427 L 189.114 20.427 L 189.114 20.427 Q 187.799 14.128 184.304 11.22 L 184.304 11.22 L 184.304 11.22 Q 180.808 8.313 174.716 8.313 L 174.716 8.313 L 174.716 8.313 Q 166.963 8.313 163.225 14.128 L 163.225 14.128 L 163.225 14.128 Q 159.487 19.942 159.487 28.733 L 159.487 28.733 L 159.487 28.733 Q 159.487 40.57 163.606 45.727 L 163.606 45.727 L 163.606 45.727 Q 167.725 50.885 174.716 50.885 L 174.716 50.885 L 174.716 50.885 Q 180.116 50.885 184.061 49.085 L 184.061 49.085 L 184.061 36.763 L 184.061 36.763 Q 184.061 33.094 186.83 30.706 L 186.83 30.706 L 186.83 30.706 Q 189.599 28.318 197.49 28.318 L 197.49 28.318 L 197.49 30.049 L 197.49 30.049 Q 193.06 30.049 193.06 36.625 L 193.06 36.625 L 193.06 49.016 L 193.06 49.016 Q 189.114 51.438 184.615 52.546 L 184.615 52.546 L 184.615 52.546 Q 180.116 53.653 174.716 53.653 L 174.716 53.653 L 174.716 53.653 Z " fill="rgb(255,255,255)"/><path d=" M 18.648 93.761 L 18.648 69.303 L 18.648 69.303 Q 18.648 66.949 18.002 65.818 L 18.002 65.818 L 18.002 65.818 Q 17.356 64.688 15.418 64.688 L 15.418 64.688 L 14.956 64.688 L 14.956 63.303 L 20.494 63.303 L 20.494 63.303 Q 22.155 63.303 23.032 63.857 L 23.032 63.857 L 23.032 63.857 Q 23.909 64.411 24.278 65.68 L 24.278 65.68 L 24.278 65.68 Q 24.647 66.949 24.647 69.303 L 24.647 69.303 L 24.647 76.917 L 37.107 76.917 L 37.107 63.303 L 43.107 63.303 L 43.107 87.762 L 43.107 87.762 Q 43.107 90.115 43.753 91.246 L 43.753 91.246 L 43.753 91.246 Q 44.399 92.377 46.337 92.377 L 46.337 92.377 L 46.799 92.377 L 46.799 93.761 L 41.261 93.761 L 41.261 93.761 Q 39.599 93.761 38.723 93.23 L 38.723 93.23 L 38.723 93.23 Q 37.846 92.7 37.477 91.431 L 37.477 91.431 L 37.477 91.431 Q 37.107 90.162 37.107 87.762 L 37.107 87.762 L 37.107 78.994 L 24.647 78.994 L 24.647 93.761 L 18.648 93.761 L 18.648 93.761 Z  M 64.15 94.684 L 64.15 94.684 Q 59.674 94.684 56.19 92.561 L 56.19 92.561 L 56.19 92.561 Q 52.705 90.438 50.813 86.747 L 50.813 86.747 L 50.813 86.747 Q 48.921 83.055 48.921 78.532 L 48.921 78.532 L 48.921 78.532 Q 48.921 74.01 50.813 70.318 L 50.813 70.318 L 50.813 70.318 Q 52.705 66.626 56.19 64.503 L 56.19 64.503 L 56.19 64.503 Q 59.674 62.38 64.15 62.38 L 64.15 62.38 L 64.15 62.38 Q 68.627 62.38 72.088 64.503 L 72.088 64.503 L 72.088 64.503 Q 75.549 66.626 77.441 70.318 L 77.441 70.318 L 77.441 70.318 Q 79.333 74.01 79.333 78.532 L 79.333 78.532 L 79.333 78.532 Q 79.333 83.055 77.441 86.747 L 77.441 86.747 L 77.441 86.747 Q 75.549 90.438 72.088 92.561 L 72.088 92.561 L 72.088 92.561 Q 68.627 94.684 64.15 94.684 L 64.15 94.684 L 64.15 94.684 Z  M 64.15 92.607 L 64.15 92.607 Q 68.35 92.607 70.657 88.939 L 70.657 88.939 L 70.657 88.939 Q 72.965 85.27 72.965 78.532 L 72.965 78.532 L 72.965 78.532 Q 72.965 71.795 70.657 68.126 L 70.657 68.126 L 70.657 68.126 Q 68.35 64.457 64.15 64.457 L 64.15 64.457 L 64.15 64.457 Q 59.951 64.457 57.666 68.126 L 57.666 68.126 L 57.666 68.126 Q 55.382 71.795 55.382 78.532 L 55.382 78.532 L 55.382 78.532 Q 55.382 85.27 57.666 88.939 L 57.666 88.939 L 57.666 88.939 Q 59.951 92.607 64.15 92.607 L 64.15 92.607 L 64.15 92.607 Z  M 85.148 93.761 L 85.148 69.303 L 85.148 69.303 Q 85.148 66.949 84.502 65.818 L 84.502 65.818 L 84.502 65.818 Q 83.855 64.688 81.917 64.688 L 81.917 64.688 L 81.456 64.688 L 81.456 63.303 L 86.994 63.303 L 86.994 63.303 Q 88.655 63.303 89.532 63.857 L 89.532 63.857 L 89.532 63.857 Q 90.409 64.411 90.778 65.68 L 90.778 65.68 L 90.778 65.68 Q 91.147 66.949 91.147 69.303 L 91.147 69.303 L 91.147 91.684 L 107.068 91.684 L 107.068 93.761 L 85.148 93.761 L 85.148 93.761 Z  M 110.668 93.761 L 110.668 69.303 L 110.668 69.303 Q 110.668 66.949 110.021 65.818 L 110.021 65.818 L 110.021 65.818 Q 109.375 64.688 107.437 64.688 L 107.437 64.688 L 106.976 64.688 L 106.976 63.303 L 119.528 63.303 L 119.528 63.303 Q 128.85 63.303 133.719 67.249 L 133.719 67.249 L 133.719 67.249 Q 138.587 71.195 138.587 78.348 L 138.587 78.348 L 138.587 78.348 Q 138.587 82.916 136.534 86.4 L 136.534 86.4 L 136.534 86.4 Q 134.48 89.885 130.442 91.823 L 130.442 91.823 L 130.442 91.823 Q 126.404 93.761 120.728 93.761 L 120.728 93.761 L 110.668 93.761 L 110.668 93.761 Z  M 120.589 91.915 L 120.589 91.915 Q 123.82 91.915 126.335 90.3 L 126.335 90.3 L 126.335 90.3 Q 128.85 88.685 130.257 85.639 L 130.257 85.639 L 130.257 85.639 Q 131.665 82.593 131.665 78.532 L 131.665 78.532 L 131.665 78.532 Q 131.665 74.517 130.257 71.495 L 130.257 71.495 L 130.257 71.495 Q 128.85 68.472 126.312 66.811 L 126.312 66.811 L 126.312 66.811 Q 123.774 65.149 120.497 65.149 L 120.497 65.149 L 120.497 65.149 Q 118.79 65.149 116.667 65.472 L 116.667 65.472 L 116.667 91.592 L 116.667 91.592 Q 117.867 91.823 118.513 91.869 L 118.513 91.869 L 118.513 91.869 Q 119.159 91.915 119.759 91.915 L 119.759 91.915 L 119.759 91.915 Q 120.359 91.915 120.589 91.915 L 120.589 91.915 L 120.589 91.915 Z  M 144.356 93.761 L 144.356 69.303 L 144.356 69.303 Q 144.356 66.949 143.71 65.818 L 143.71 65.818 L 143.71 65.818 Q 143.064 64.688 141.125 64.688 L 141.125 64.688 L 140.664 64.688 L 140.664 63.303 L 161.015 63.303 L 161.015 63.303 Q 164.938 63.303 164.938 66.995 L 164.938 66.995 L 164.938 70.918 L 163.553 70.918 L 163.553 70.918 Q 163.553 68.057 162.1 66.718 L 162.1 66.718 L 162.1 66.718 Q 160.646 65.38 157.785 65.38 L 157.785 65.38 L 150.355 65.38 L 150.355 76.917 L 162.353 76.917 L 162.353 78.994 L 150.355 78.994 L 150.355 91.684 L 158.246 91.684 L 158.246 91.684 Q 160.877 91.684 162.63 90.508 L 162.63 90.508 L 162.63 90.508 Q 164.384 89.331 165.538 86.424 L 165.538 86.424 L 166.784 86.885 L 165.445 90.531 L 165.445 90.531 Q 164.845 92.192 164.015 92.977 L 164.015 92.977 L 164.015 92.977 Q 163.184 93.761 161.431 93.761 L 161.431 93.761 L 144.356 93.761 L 144.356 93.761 Z  M 193.457 94.223 L 193.457 94.223 Q 190.965 94.223 188.843 92.7 L 188.843 92.7 L 188.843 92.7 Q 186.72 91.177 184.551 87.531 L 184.551 87.531 L 179.936 79.824 L 178.09 79.824 L 178.09 93.761 L 172.045 93.761 L 172.045 69.303 L 172.045 69.303 Q 172.045 66.949 171.399 65.818 L 171.399 65.818 L 171.399 65.818 Q 170.752 64.688 168.814 64.688 L 168.814 64.688 L 168.353 64.688 L 168.353 63.303 L 181.09 63.303 L 181.09 63.303 Q 185.797 63.303 189.673 65.034 L 189.673 65.034 L 189.673 65.034 Q 193.55 66.764 193.55 71.656 L 193.55 71.656 L 193.55 71.656 Q 193.55 75.025 191.496 76.802 L 191.496 76.802 L 191.496 76.802 Q 189.442 78.578 186.074 79.455 L 186.074 79.455 L 190.919 87.531 L 190.919 87.531 Q 193.642 92.1 196.642 92.607 L 196.642 92.607 L 196.642 93.761 L 196.642 93.761 Q 196.272 93.946 195.303 94.084 L 195.303 94.084 L 195.303 94.084 Q 194.334 94.223 193.457 94.223 L 193.457 94.223 L 193.457 94.223 Z  M 178.09 77.978 L 180.859 77.978 L 180.859 77.978 Q 183.443 77.978 185.266 76.432 L 185.266 76.432 L 185.266 76.432 Q 187.089 74.887 187.089 71.564 L 187.089 71.564 L 187.089 71.564 Q 187.089 68.241 185.289 66.695 L 185.289 66.695 L 185.289 66.695 Q 183.489 65.149 180.951 65.149 L 180.951 65.149 L 180.951 65.149 Q 179.751 65.149 178.09 65.472 L 178.09 65.472 L 178.09 77.978 L 178.09 77.978 Z " fill="rgb(255,255,255)"/></g></svg>