<?xml version="1.0" encoding="UTF-8" standalone="no"?><!-- Generator: Gravit.io --><svg xmlns="http://www.w3.org/2000/svg" xmlns:xlink="http://www.w3.org/1999/xlink" style="isolation:isolate" viewBox="0 0 216 99" width="216pt" height="99pt"><defs><clipPath id="_clipPath_xDLoiScWVohRQlLuOVQxu5sa37pnnWVv"><rect width="216" height="99"/></clipPath></defs><g clip-path="url(#_clipPath_xDLoiScWVohRQlLuOVQxu5sa37pnnWVv)"><path d=" M 28.4 47.58 L 28.4 47.58 Q 32.54 48.36 35.15 50.64 L 35.15 50.64 L 35.15 50.64 Q 37.76 52.92 37.76 57.48 L 37.76 57.48 L 37.76 57.48 Q 37.76 64.14 32.99 66.87 L 32.99 66.87 L 32.99 66.87 Q 28.22 69.6 19.64 69.6 L 19.64 69.6 L 6.26 69.6 L 6.26 28.02 L 18.02 28.02 L 18.02 28.02 Q 26.78 28.02 31.4 30.51 L 31.4 30.51 L 31.4 30.51 Q 36.02 33 36.02 38.64 L 36.02 38.64 L 36.02 38.64 Q 36.02 42.3 33.83 44.55 L 33.83 44.55 L 33.83 44.55 Q 31.64 46.8 28.4 47.58 L 28.4 47.58 L 28.4 47.58 Z  M 18.98 34.98 L 16.1 34.98 L 16.1 44.64 L 19.76 44.64 L 19.76 44.64 Q 26 44.64 26 39.6 L 26 39.6 L 26 39.6 Q 26 37.08 24.32 36.03 L 24.32 36.03 L 24.32 36.03 Q 22.64 34.98 18.98 34.98 L 18.98 34.98 L 18.98 34.98 Z  M 19.7 62.46 L 19.7 62.46 Q 23.6 62.46 25.61 61.29 L 25.61 61.29 L 25.61 61.29 Q 27.62 60.12 27.62 56.94 L 27.62 56.94 L 27.62 56.94 Q 27.62 51.18 20.42 51.18 L 20.42 51.18 L 16.1 51.18 L 16.1 62.46 L 19.7 62.46 L 19.7 62.46 Z  M 70.88 53.04 L 70.88 53.04 Q 70.88 55.02 70.7 56.46 L 70.7 56.46 L 50.96 56.46 L 50.96 56.46 Q 51.44 60.48 53.24 62.1 L 53.24 62.1 L 53.24 62.1 Q 55.04 63.72 58.22 63.72 L 58.22 63.72 L 58.22 63.72 Q 60.14 63.72 61.94 63.03 L 61.94 63.03 L 61.94 63.03 Q 63.74 62.34 65.84 60.9 L 65.84 60.9 L 69.74 66.18 L 69.74 66.18 Q 64.16 70.62 57.32 70.62 L 57.32 70.62 L 57.32 70.62 Q 49.58 70.62 45.44 66.06 L 45.44 66.06 L 45.44 66.06 Q 41.3 61.5 41.3 53.82 L 41.3 53.82 L 41.3 53.82 Q 41.3 48.96 43.04 45.09 L 43.04 45.09 L 43.04 45.09 Q 44.78 41.22 48.14 38.97 L 48.14 38.97 L 48.14 38.97 Q 51.5 36.72 56.18 36.72 L 56.18 36.72 L 56.18 36.72 Q 63.08 36.72 66.98 41.04 L 66.98 41.04 L 66.98 41.04 Q 70.88 45.36 70.88 53.04 L 70.88 53.04 L 70.88 53.04 Z  M 61.58 50.76 L 61.58 50.34 L 61.58 50.34 Q 61.46 43.02 56.42 43.02 L 56.42 43.02 L 56.42 43.02 Q 53.96 43.02 52.61 44.82 L 52.61 44.82 L 52.61 44.82 Q 51.26 46.62 50.96 50.76 L 50.96 50.76 L 61.58 50.76 L 61.58 50.76 Z  M 103.34 32.58 L 105.56 39.6 L 105.56 39.6 Q 102.44 40.86 96.38 40.86 L 96.38 40.86 L 96.38 40.86 Q 99.5 42.18 100.94 44.1 L 100.94 44.1 L 100.94 44.1 Q 102.38 46.02 102.38 49.08 L 102.38 49.08 L 102.38 49.08 Q 102.38 52.14 100.76 54.57 L 100.76 54.57 L 100.76 54.57 Q 99.14 57 96.11 58.38 L 96.11 58.38 L 96.11 58.38 Q 93.08 59.76 89 59.76 L 89 59.76 L 89 59.76 Q 87.08 59.76 85.34 59.4 L 85.34 59.4 L 85.34 59.4 Q 84.86 59.64 84.59 60.15 L 84.59 60.15 L 84.59 60.15 Q 84.32 60.66 84.32 61.2 L 84.32 61.2 L 84.32 61.2 Q 84.32 62.1 85.01 62.61 L 85.01 62.61 L 85.01 62.61 Q 85.7 63.12 87.8 63.12 L 87.8 63.12 L 92.6 63.12 L 92.6 63.12 Q 96.26 63.12 99.02 64.32 L 99.02 64.32 L 99.02 64.32 Q 101.78 65.52 103.28 67.62 L 103.28 67.62 L 103.28 67.62 Q 104.78 69.72 104.78 72.36 L 104.78 72.36 L 104.78 72.36 Q 104.78 77.34 100.49 80.13 L 100.49 80.13 L 100.49 80.13 Q 96.2 82.92 88.1 82.92 L 88.1 82.92 L 88.1 82.92 Q 82.28 82.92 78.92 81.69 L 78.92 81.69 L 78.92 81.69 Q 75.56 80.46 74.21 78.24 L 74.21 78.24 L 74.21 78.24 Q 72.86 76.02 72.86 72.66 L 72.86 72.66 L 81.38 72.66 L 81.38 72.66 Q 81.38 74.1 81.95 74.94 L 81.95 74.94 L 81.95 74.94 Q 82.52 75.78 84.02 76.2 L 84.02 76.2 L 84.02 76.2 Q 85.52 76.62 88.34 76.62 L 88.34 76.62 L 88.34 76.62 Q 92.24 76.62 93.74 75.69 L 93.74 75.69 L 93.74 75.69 Q 95.24 74.76 95.24 73.02 L 95.24 73.02 L 95.24 73.02 Q 95.24 71.58 94.1 70.74 L 94.1 70.74 L 94.1 70.74 Q 92.96 69.9 90.68 69.9 L 90.68 69.9 L 86.06 69.9 L 86.06 69.9 Q 81.14 69.9 78.71 68.13 L 78.71 68.13 L 78.71 68.13 Q 76.28 66.36 76.28 63.6 L 76.28 63.6 L 76.28 63.6 Q 76.28 61.86 77.3 60.21 L 77.3 60.21 L 77.3 60.21 Q 78.32 58.56 80.06 57.48 L 80.06 57.48 L 80.06 57.48 Q 77.06 55.86 75.71 53.67 L 75.71 53.67 L 75.71 53.67 Q 74.36 51.48 74.36 48.36 L 74.36 48.36 L 74.36 48.36 Q 74.36 43.02 78.2 39.87 L 78.2 39.87 L 78.2 39.87 Q 82.04 36.72 88.34 36.72 L 88.34 36.72 L 88.34 36.72 Q 93.14 36.84 96.47 35.76 L 96.47 35.76 L 96.47 35.76 Q 99.8 34.68 103.34 32.58 L 103.34 32.58 L 103.34 32.58 Z  M 88.58 42.96 L 88.58 42.96 Q 86.36 42.96 85.07 44.37 L 85.07 44.37 L 85.07 44.37 Q 83.78 45.78 83.78 48.24 L 83.78 48.24 L 83.78 48.24 Q 83.78 50.82 85.07 52.23 L 85.07 52.23 L 85.07 52.23 Q 86.36 53.64 88.58 53.64 L 88.58 53.64 L 88.58 53.64 Q 90.92 53.64 92.15 52.26 L 92.15 52.26 L 92.15 52.26 Q 93.38 50.88 93.38 48.12 L 93.38 48.12 L 93.38 48.12 Q 93.38 42.96 88.58 42.96 L 88.58 42.96 L 88.58 42.96 Z  M 123.08 36.72 L 123.08 36.72 Q 130.4 36.72 134.54 41.19 L 134.54 41.19 L 134.54 41.19 Q 138.68 45.66 138.68 53.7 L 138.68 53.7 L 138.68 53.7 Q 138.68 58.8 136.79 62.61 L 136.79 62.61 L 136.79 62.61 Q 134.9 66.42 131.39 68.52 L 131.39 68.52 L 131.39 68.52 Q 127.88 70.62 123.08 70.62 L 123.08 70.62 L 123.08 70.62 Q 115.82 70.62 111.65 66.15 L 111.65 66.15 L 111.65 66.15 Q 107.48 61.68 107.48 53.64 L 107.48 53.64 L 107.48 53.64 Q 107.48 48.54 109.37 44.73 L 109.37 44.73 L 109.37 44.73 Q 111.26 40.92 114.77 38.82 L 114.77 38.82 L 114.77 38.82 Q 118.28 36.72 123.08 36.72 L 123.08 36.72 L 123.08 36.72 Z  M 123.08 43.68 L 123.08 43.68 Q 120.2 43.68 118.76 46.11 L 118.76 46.11 L 118.76 46.11 Q 117.32 48.54 117.32 53.64 L 117.32 53.64 L 117.32 53.64 Q 117.32 58.86 118.73 61.26 L 118.73 61.26 L 118.73 61.26 Q 120.14 63.66 123.08 63.66 L 123.08 63.66 L 123.08 63.66 Q 125.96 63.66 127.4 61.23 L 127.4 61.23 L 127.4 61.23 Q 128.84 58.8 128.84 53.7 L 128.84 53.7 L 128.84 53.7 Q 128.84 48.48 127.43 46.08 L 127.43 46.08 L 127.43 46.08 Q 126.02 43.68 123.08 43.68 L 123.08 43.68 L 123.08 43.68 Z  M 158.12 36.72 L 158.12 36.72 Q 165.44 36.72 169.58 41.19 L 169.58 41.19 L 169.58 41.19 Q 173.72 45.66 173.72 53.7 L 173.72 53.7 L 173.72 53.7 Q 173.72 58.8 171.83 62.61 L 171.83 62.61 L 171.83 62.61 Q 169.94 66.42 166.43 68.52 L 166.43 68.52 L 166.43 68.52 Q 162.92 70.62 158.12 70.62 L 158.12 70.62 L 158.12 70.62 Q 150.86 70.62 146.69 66.15 L 146.69 66.15 L 146.69 66.15 Q 142.52 61.68 142.52 53.64 L 142.52 53.64 L 142.52 53.64 Q 142.52 48.54 144.41 44.73 L 144.41 44.73 L 144.41 44.73 Q 146.3 40.92 149.81 38.82 L 149.81 38.82 L 149.81 38.82 Q 153.32 36.72 158.12 36.72 L 158.12 36.72 L 158.12 36.72 Z  M 158.12 43.68 L 158.12 43.68 Q 155.24 43.68 153.8 46.11 L 153.8 46.11 L 153.8 46.11 Q 152.36 48.54 152.36 53.64 L 152.36 53.64 L 152.36 53.64 Q 152.36 58.86 153.77 61.26 L 153.77 61.26 L 153.77 61.26 Q 155.18 63.66 158.12 63.66 L 158.12 63.66 L 158.12 63.66 Q 161 63.66 162.44 61.23 L 162.44 61.23 L 162.44 61.23 Q 163.88 58.8 163.88 53.7 L 163.88 53.7 L 163.88 53.7 Q 163.88 48.48 162.47 46.08 L 162.47 46.08 L 162.47 46.08 Q 161.06 43.68 158.12 43.68 L 158.12 43.68 L 158.12 43.68 Z  M 198.44 24.06 L 207.92 25.08 L 207.92 69.6 L 199.52 69.6 L 199.04 65.88 L 199.04 65.88 Q 195.68 70.62 189.98 70.62 L 189.98 70.62 L 189.98 70.62 Q 184.04 70.62 180.95 66.06 L 180.95 66.06 L 180.95 66.06 Q 177.86 61.5 177.86 53.58 L 177.86 53.58 L 177.86 53.58 Q 177.86 48.72 179.48 44.88 L 179.48 44.88 L 179.48 44.88 Q 181.1 41.04 184.07 38.88 L 184.07 38.88 L 184.07 38.88 Q 187.04 36.72 190.88 36.72 L 190.88 36.72 L 190.88 36.72 Q 195.44 36.72 198.44 39.72 L 198.44 39.72 L 198.44 24.06 L 198.44 24.06 Z  M 192.92 63.66 L 192.92 63.66 Q 196.22 63.66 198.44 60.06 L 198.44 60.06 L 198.44 46.32 L 198.44 46.32 Q 197.3 44.94 196.13 44.28 L 196.13 44.28 L 196.13 44.28 Q 194.96 43.62 193.46 43.62 L 193.46 43.62 L 193.46 43.62 Q 190.82 43.62 189.26 46.08 L 189.26 46.08 L 189.26 46.08 Q 187.7 48.54 187.7 53.64 L 187.7 53.64 L 187.7 53.64 Q 187.7 59.22 189.05 61.44 L 189.05 61.44 L 189.05 61.44 Q 190.4 63.66 192.92 63.66 L 192.92 63.66 L 192.92 63.66 Z " fill="rgb(0,0,0)"/></g></svg>