<?xml version="1.0" encoding="UTF-8" standalone="no"?><!-- Generator: Gravit.io --><svg xmlns="http://www.w3.org/2000/svg" xmlns:xlink="http://www.w3.org/1999/xlink" style="isolation:isolate" viewBox="0 0 216 99" width="216pt" height="99pt"><defs><clipPath id="_clipPath_FGRj6iJqwx8NFPBClIgpBt8wjX3ABbuu"><rect width="216" height="99"/></clipPath></defs><g clip-path="url(#_clipPath_FGRj6iJqwx8NFPBClIgpBt8wjX3ABbuu)"><path d=" M 65.288 44.166 L 65.288 2.934 L 76.472 2.934 L 76.472 2.934 Q 80.984 2.934 83.024 5.142 L 83.024 5.142 L 83.024 5.142 Q 85.064 7.35 85.064 12.342 L 85.064 12.342 L 85.064 14.166 L 85.064 14.166 Q 85.064 20.07 80.84 21.222 L 80.84 21.222 L 80.84 21.222 Q 83.432 21.894 84.488 24.342 L 84.488 24.342 L 84.488 24.342 Q 85.544 26.79 85.544 30.822 L 85.544 30.822 L 85.544 30.822 Q 85.544 37.398 83.576 40.782 L 83.576 40.782 L 83.576 40.782 Q 81.608 44.166 76.472 44.166 L 76.472 44.166 L 65.288 44.166 L 65.288 44.166 Z  M 73.352 18.438 L 75.032 18.438 L 75.032 18.438 Q 76.088 18.438 76.472 17.646 L 76.472 17.646 L 76.472 17.646 Q 76.856 16.854 76.856 15.414 L 76.856 15.414 L 76.856 11.286 L 76.856 11.286 Q 76.856 9.27 75.08 9.27 L 75.08 9.27 L 73.352 9.27 L 73.352 18.438 L 73.352 18.438 Z  M 74.168 36.918 L 74.168 36.918 Q 77.384 36.918 77.384 33.846 L 77.384 33.846 L 77.384 28.71 L 77.384 28.71 Q 77.384 26.838 76.832 25.878 L 76.832 25.878 L 76.832 25.878 Q 76.28 24.918 74.888 24.918 L 74.888 24.918 L 73.352 24.918 L 73.352 36.87 L 74.168 36.918 L 74.168 36.918 Z  M 88.28 44.166 L 88.28 2.934 L 100.952 2.934 L 100.952 2.934 Q 103.976 2.934 105.632 4.302 L 105.632 4.302 L 105.632 4.302 Q 107.288 5.67 107.864 8.142 L 107.864 8.142 L 107.864 8.142 Q 108.44 10.614 108.44 14.454 L 108.44 14.454 L 108.44 14.454 Q 108.44 17.958 107.528 19.926 L 107.528 19.926 L 107.528 19.926 Q 106.616 21.894 104.36 22.662 L 104.36 22.662 L 104.36 22.662 Q 106.232 23.046 107.072 24.534 L 107.072 24.534 L 107.072 24.534 Q 107.912 26.022 107.912 28.566 L 107.912 28.566 L 107.816 44.166 L 99.752 44.166 L 99.752 28.038 L 99.752 28.038 Q 99.752 26.31 99.08 25.83 L 99.08 25.83 L 99.08 25.83 Q 98.408 25.35 96.632 25.35 L 96.632 25.35 L 96.632 44.166 L 88.28 44.166 L 88.28 44.166 Z  M 96.68 18.198 L 98.648 18.198 L 98.648 18.198 Q 100.376 18.198 100.376 14.454 L 100.376 14.454 L 100.376 14.454 Q 100.376 12.822 100.232 12.006 L 100.232 12.006 L 100.232 12.006 Q 100.088 11.19 99.704 10.878 L 99.704 10.878 L 99.704 10.878 Q 99.32 10.566 98.6 10.566 L 98.6 10.566 L 96.68 10.566 L 96.68 18.198 L 96.68 18.198 Z  M 123.944 44.166 L 116.168 44.166 L 116.168 30.582 L 109.592 2.934 L 117.752 2.934 L 120.056 16.902 L 122.36 2.934 L 130.52 2.934 L 123.944 30.582 L 123.944 44.166 L 123.944 44.166 Z  M 149.624 44.166 L 132.584 44.166 L 132.584 2.934 L 149.096 2.934 L 149.096 10.902 L 140.984 10.902 L 140.984 18.918 L 148.76 18.918 L 148.76 26.694 L 140.984 26.694 L 140.984 36.15 L 149.624 36.15 L 149.624 44.166 L 149.624 44.166 Z " fill="rgb(255,255,255)"/><path d=" M 57.728 94.05 L 57.728 94.05 Q 52.112 94.05 49.616 91.266 L 49.616 91.266 L 49.616 91.266 Q 47.12 88.482 47.12 82.29 L 47.12 82.29 L 47.12 78.258 L 55.232 78.258 L 55.232 83.394 L 55.232 83.394 Q 55.232 86.466 57.2 86.466 L 57.2 86.466 L 57.2 86.466 Q 58.304 86.466 58.736 85.818 L 58.736 85.818 L 58.736 85.818 Q 59.168 85.17 59.168 83.634 L 59.168 83.634 L 59.168 83.634 Q 59.168 81.618 58.688 80.298 L 58.688 80.298 L 58.688 80.298 Q 58.208 78.978 57.464 78.09 L 57.464 78.09 L 57.464 78.09 Q 56.72 77.202 54.8 75.33 L 54.8 75.33 L 51.248 71.778 L 51.248 71.778 Q 47.12 67.746 47.12 62.85 L 47.12 62.85 L 47.12 62.85 Q 47.12 57.57 49.544 54.81 L 49.544 54.81 L 49.544 54.81 Q 51.968 52.05 56.624 52.05 L 56.624 52.05 L 56.624 52.05 Q 62.192 52.05 64.64 55.002 L 64.64 55.002 L 64.64 55.002 Q 67.088 57.954 67.088 64.242 L 67.088 64.242 L 58.688 64.242 L 58.64 61.41 L 58.64 61.41 Q 58.64 60.594 58.184 60.114 L 58.184 60.114 L 58.184 60.114 Q 57.728 59.634 56.912 59.634 L 56.912 59.634 L 56.912 59.634 Q 55.952 59.634 55.472 60.162 L 55.472 60.162 L 55.472 60.162 Q 54.992 60.69 54.992 61.602 L 54.992 61.602 L 54.992 61.602 Q 54.992 63.618 57.296 65.778 L 57.296 65.778 L 62.096 70.386 L 62.096 70.386 Q 63.776 72.018 64.88 73.482 L 64.88 73.482 L 64.88 73.482 Q 65.984 74.946 66.656 76.938 L 66.656 76.938 L 66.656 76.938 Q 67.328 78.93 67.328 81.666 L 67.328 81.666 L 67.328 81.666 Q 67.328 87.762 65.096 90.906 L 65.096 90.906 L 65.096 90.906 Q 62.864 94.05 57.728 94.05 L 57.728 94.05 L 57.728 94.05 Z  M 81.872 93.666 L 73.616 93.666 L 73.616 60.354 L 68.72 60.354 L 68.72 52.434 L 86.768 52.434 L 86.768 60.354 L 81.872 60.354 L 81.872 93.666 L 81.872 93.666 Z  M 98.624 94.05 L 98.624 94.05 Q 93.536 94.05 91.064 91.17 L 91.064 91.17 L 91.064 91.17 Q 88.592 88.29 88.592 82.626 L 88.592 82.626 L 88.592 52.434 L 96.608 52.434 L 96.608 82.29 L 96.608 82.29 Q 96.608 84.258 96.992 85.362 L 96.992 85.362 L 96.992 85.362 Q 97.376 86.466 98.624 86.466 L 98.624 86.466 L 98.624 86.466 Q 99.872 86.466 100.256 85.386 L 100.256 85.386 L 100.256 85.386 Q 100.64 84.306 100.64 82.29 L 100.64 82.29 L 100.64 52.434 L 108.656 52.434 L 108.656 82.626 L 108.656 82.626 Q 108.656 88.29 106.184 91.17 L 106.184 91.17 L 106.184 91.17 Q 103.712 94.05 98.624 94.05 L 98.624 94.05 L 98.624 94.05 Z  M 111.824 93.666 L 111.824 52.434 L 123.2 52.434 L 123.2 52.434 Q 127.616 52.434 129.824 54.882 L 129.824 54.882 L 129.824 54.882 Q 132.032 57.33 132.08 62.13 L 132.08 62.13 L 132.176 81.426 L 132.176 81.426 Q 132.224 87.522 130.064 90.594 L 130.064 90.594 L 130.064 90.594 Q 127.904 93.666 122.912 93.666 L 122.912 93.666 L 111.824 93.666 L 111.824 93.666 Z  M 120.128 86.37 L 121.568 86.37 L 121.568 86.37 Q 123.824 86.37 123.824 84.162 L 123.824 84.162 L 123.824 62.898 L 123.824 62.898 Q 123.824 61.506 123.608 60.81 L 123.608 60.81 L 123.608 60.81 Q 123.392 60.114 122.816 59.874 L 122.816 59.874 L 122.816 59.874 Q 122.24 59.634 121.04 59.634 L 121.04 59.634 L 120.128 59.634 L 120.128 86.37 L 120.128 86.37 Z  M 143.072 93.666 L 135.104 93.666 L 135.104 52.434 L 143.072 52.434 L 143.072 93.666 L 143.072 93.666 Z  M 156.224 94.05 L 156.224 94.05 Q 151.232 94.05 148.64 91.002 L 148.64 91.002 L 148.64 91.002 Q 146.048 87.954 146.048 82.434 L 146.048 82.434 L 146.048 62.802 L 146.048 62.802 Q 146.048 57.474 148.64 54.762 L 148.64 54.762 L 148.64 54.762 Q 151.232 52.05 156.224 52.05 L 156.224 52.05 L 156.224 52.05 Q 161.216 52.05 163.808 54.762 L 163.808 54.762 L 163.808 54.762 Q 166.4 57.474 166.4 62.802 L 166.4 62.802 L 166.4 82.434 L 166.4 82.434 Q 166.4 88.002 163.808 91.026 L 163.808 91.026 L 163.808 91.026 Q 161.216 94.05 156.224 94.05 L 156.224 94.05 L 156.224 94.05 Z  M 156.224 86.466 L 156.224 86.466 Q 157.328 86.466 157.712 85.506 L 157.712 85.506 L 157.712 85.506 Q 158.096 84.546 158.096 82.818 L 158.096 82.818 L 158.096 62.658 L 158.096 62.658 Q 158.096 61.314 157.736 60.474 L 157.736 60.474 L 157.736 60.474 Q 157.376 59.634 156.272 59.634 L 156.272 59.634 L 156.272 59.634 Q 154.208 59.634 154.208 62.754 L 154.208 62.754 L 154.208 82.866 L 154.208 82.866 Q 154.208 84.642 154.64 85.554 L 154.64 85.554 L 154.64 85.554 Q 155.072 86.466 156.224 86.466 L 156.224 86.466 L 156.224 86.466 Z " fill="rgb(255,255,255)"/></g></svg>