<?xml version="1.0" encoding="UTF-8" standalone="no"?><!-- Generator: Gravit.io --><svg xmlns="http://www.w3.org/2000/svg" xmlns:xlink="http://www.w3.org/1999/xlink" style="isolation:isolate" viewBox="0 0 216 99" width="216pt" height="99pt"><defs><clipPath id="_clipPath_4gLOC7fuyyBZSuZuo3ohjw14XI95uFsM"><rect width="216" height="99"/></clipPath></defs><g clip-path="url(#_clipPath_4gLOC7fuyyBZSuZuo3ohjw14XI95uFsM)"><path d=" M 44.022 75.498 L 26.11 54.25 L 18.061 62.517 L 18.061 75.498 L 8.633 75.498 L 8.633 24.735 L 18.061 24.735 L 18.061 50.769 L 43.152 24.735 L 53.74 24.735 L 32.419 47.433 L 55.045 75.498 L 44.022 75.498 Z  M 76.365 76.006 L 76.365 76.006 Q 70.491 76.006 65.778 73.467 L 65.778 73.467 L 65.778 73.467 Q 61.064 70.929 58.417 66.397 L 58.417 66.397 L 58.417 66.397 Q 55.77 61.864 55.77 56.135 L 55.77 56.135 L 55.77 56.135 Q 55.77 50.406 58.417 45.91 L 58.417 45.91 L 58.417 45.91 Q 61.064 41.414 65.778 38.876 L 65.778 38.876 L 65.778 38.876 Q 70.491 36.338 76.365 36.338 L 76.365 36.338 L 76.365 36.338 Q 82.312 36.338 87.026 38.876 L 87.026 38.876 L 87.026 38.876 Q 91.739 41.414 94.386 45.91 L 94.386 45.91 L 94.386 45.91 Q 97.033 50.406 97.033 56.135 L 97.033 56.135 L 97.033 56.135 Q 97.033 61.864 94.386 66.397 L 94.386 66.397 L 94.386 66.397 Q 91.739 70.929 87.026 73.467 L 87.026 73.467 L 87.026 73.467 Q 82.312 76.006 76.365 76.006 L 76.365 76.006 Z  M 76.365 68.246 L 76.365 68.246 Q 81.369 68.246 84.633 64.91 L 84.633 64.91 L 84.633 64.91 Q 87.896 61.574 87.896 56.135 L 87.896 56.135 L 87.896 56.135 Q 87.896 50.697 84.633 47.361 L 84.633 47.361 L 84.633 47.361 Q 81.369 44.025 76.365 44.025 L 76.365 44.025 L 76.365 44.025 Q 71.362 44.025 68.135 47.361 L 68.135 47.361 L 68.135 47.361 Q 64.908 50.697 64.908 56.135 L 64.908 56.135 L 64.908 56.135 Q 64.908 61.574 68.135 64.91 L 68.135 64.91 L 68.135 64.91 Q 71.362 68.246 76.365 68.246 L 76.365 68.246 Z  M 105.735 75.498 L 105.735 21.689 L 114.8 21.689 L 114.8 75.498 L 105.735 75.498 Z  M 141.487 36.338 L 141.487 36.338 Q 150.044 36.338 154.577 40.435 L 154.577 40.435 L 154.577 40.435 Q 159.109 44.532 159.109 52.8 L 159.109 52.8 L 159.109 75.498 L 150.552 75.498 L 150.552 70.784 L 150.552 70.784 Q 148.884 73.322 145.802 74.664 L 145.802 74.664 L 145.802 74.664 Q 142.72 76.006 138.369 76.006 L 138.369 76.006 L 138.369 76.006 Q 134.018 76.006 130.754 74.519 L 130.754 74.519 L 130.754 74.519 Q 127.491 73.032 125.714 70.385 L 125.714 70.385 L 125.714 70.385 Q 123.938 67.738 123.938 64.403 L 123.938 64.403 L 123.938 64.403 Q 123.938 59.181 127.817 56.027 L 127.817 56.027 L 127.817 56.027 Q 131.697 52.872 140.037 52.872 L 140.037 52.872 L 150.044 52.872 L 150.044 52.292 L 150.044 52.292 Q 150.044 48.231 147.615 46.055 L 147.615 46.055 L 147.615 46.055 Q 145.186 43.88 140.399 43.88 L 140.399 43.88 L 140.399 43.88 Q 137.136 43.88 133.981 44.895 L 133.981 44.895 L 133.981 44.895 Q 130.827 45.91 128.651 47.723 L 128.651 47.723 L 125.098 41.124 L 125.098 41.124 Q 128.144 38.804 132.422 37.571 L 132.422 37.571 L 132.422 37.571 Q 136.701 36.338 141.487 36.338 L 141.487 36.338 Z  M 140.254 69.406 L 140.254 69.406 Q 143.663 69.406 146.31 67.847 L 146.31 67.847 L 146.31 67.847 Q 148.956 66.288 150.044 63.387 L 150.044 63.387 L 150.044 58.891 L 140.689 58.891 L 140.689 58.891 Q 132.857 58.891 132.857 64.04 L 132.857 64.04 L 132.857 64.04 Q 132.857 66.506 134.815 67.956 L 134.815 67.956 L 134.815 67.956 Q 136.773 69.406 140.254 69.406 L 140.254 69.406 Z  M 199.937 75.498 L 186.521 58.891 L 179.777 65.273 L 179.777 75.498 L 170.712 75.498 L 170.712 21.689 L 179.777 21.689 L 179.777 54.177 L 198.559 36.773 L 209.437 36.773 L 193.265 53.017 L 210.96 75.498 L 199.937 75.498 Z " fill="rgb(255,255,255)"/></g></svg>