<?xml version="1.0" encoding="UTF-8" standalone="no"?><!-- Generator: Gravit.io --><svg xmlns="http://www.w3.org/2000/svg" xmlns:xlink="http://www.w3.org/1999/xlink" style="isolation:isolate" viewBox="0 0 812 234.375" width="812pt" height="234.375pt"><defs><clipPath id="_clipPath_uegoFW28WynqjY1gpQYmjbrdnTjjLkAZ"><rect width="812" height="234.375"/></clipPath></defs><g clip-path="url(#_clipPath_uegoFW28WynqjY1gpQYmjbrdnTjjLkAZ)"><path d=" M 763.379 171.68 L 763.379 171.68 L 763.379 171.68 Q 763.379 164.941 767.92 160.742 L 767.92 160.742 L 767.92 160.742 Q 772.461 156.543 779.297 156.543 L 779.297 156.543 L 779.297 156.543 Q 786.23 156.543 790.771 160.742 L 790.771 160.742 L 790.771 160.742 Q 795.313 164.941 795.313 171.68 L 795.313 171.68 L 795.313 171.68 Q 795.313 178.32 790.82 182.471 L 790.82 182.471 L 790.82 182.471 Q 786.328 186.621 779.297 186.621 L 779.297 186.621 L 779.297 186.621 Q 772.363 186.621 767.871 182.471 L 767.871 182.471 L 767.871 182.471 Q 763.379 178.32 763.379 171.68 Z " fill="rgb(0,151,106)"/><path d=" M 33.203 43.359 L 65.234 150.293 L 97.461 43.359 L 130.078 43.359 L 80.566 185.547 L 50 185.547 L 0.684 43.359 L 33.203 43.359 L 33.203 43.359 Z  M 132.715 133.008 L 132.715 131.738 L 132.715 131.738 Q 132.715 116.016 138.77 103.711 L 138.77 103.711 L 138.77 103.711 Q 144.824 91.406 156.201 84.668 L 156.201 84.668 L 156.201 84.668 Q 167.578 77.93 182.617 77.93 L 182.617 77.93 L 182.617 77.93 Q 204.004 77.93 217.529 91.016 L 217.529 91.016 L 217.529 91.016 Q 231.055 104.102 232.617 126.563 L 232.617 126.563 L 232.813 133.789 L 232.813 133.789 Q 232.813 158.105 219.238 172.803 L 219.238 172.803 L 219.238 172.803 Q 205.664 187.5 182.813 187.5 L 182.813 187.5 L 182.813 187.5 Q 159.961 187.5 146.338 172.852 L 146.338 172.852 L 146.338 172.852 Q 132.715 158.203 132.715 133.008 L 132.715 133.008 L 132.715 133.008 Z  M 160.938 133.789 L 160.938 133.789 L 160.938 133.789 Q 160.938 148.828 166.602 156.787 L 166.602 156.787 L 166.602 156.787 Q 172.266 164.746 182.813 164.746 L 182.813 164.746 L 182.813 164.746 Q 193.066 164.746 198.828 156.885 L 198.828 156.885 L 198.828 156.885 Q 204.59 149.023 204.59 131.738 L 204.59 131.738 L 204.59 131.738 Q 204.59 116.992 198.828 108.887 L 198.828 108.887 L 198.828 108.887 Q 193.066 100.781 182.617 100.781 L 182.617 100.781 L 182.617 100.781 Q 172.266 100.781 166.602 108.838 L 166.602 108.838 L 166.602 108.838 Q 160.938 116.895 160.938 133.789 Z  M 307.422 156.348 L 307.422 156.348 L 307.422 156.348 Q 307.422 151.172 302.295 148.193 L 302.295 148.193 L 302.295 148.193 Q 297.168 145.215 285.84 142.871 L 285.84 142.871 L 285.84 142.871 Q 248.145 134.961 248.145 110.84 L 248.145 110.84 L 248.145 110.84 Q 248.145 96.777 259.814 87.354 L 259.814 87.354 L 259.814 87.354 Q 271.484 77.93 290.332 77.93 L 290.332 77.93 L 290.332 77.93 Q 310.449 77.93 322.51 87.402 L 322.51 87.402 L 322.51 87.402 Q 334.57 96.875 334.57 112.012 L 334.57 112.012 L 306.348 112.012 L 306.348 112.012 Q 306.348 105.957 302.441 102.002 L 302.441 102.002 L 302.441 102.002 Q 298.535 98.047 290.234 98.047 L 290.234 98.047 L 290.234 98.047 Q 283.105 98.047 279.199 101.27 L 279.199 101.27 L 279.199 101.27 Q 275.293 104.492 275.293 109.473 L 275.293 109.473 L 275.293 109.473 Q 275.293 114.16 279.736 117.041 L 279.736 117.041 L 279.736 117.041 Q 284.18 119.922 294.727 122.021 L 294.727 122.021 L 294.727 122.021 Q 305.273 124.121 312.5 126.758 L 312.5 126.758 L 312.5 126.758 Q 334.863 134.961 334.863 155.176 L 334.863 155.176 L 334.863 155.176 Q 334.863 169.629 322.461 178.564 L 322.461 178.564 L 322.461 178.564 Q 310.059 187.5 290.43 187.5 L 290.43 187.5 L 290.43 187.5 Q 277.148 187.5 266.846 182.764 L 266.846 182.764 L 266.846 182.764 Q 256.543 178.027 250.684 169.775 L 250.684 169.775 L 250.684 169.775 Q 244.824 161.523 244.824 151.953 L 244.824 151.953 L 271.582 151.953 L 271.582 151.953 Q 271.973 159.473 277.148 163.477 L 277.148 163.477 L 277.148 163.477 Q 282.324 167.48 291.016 167.48 L 291.016 167.48 L 291.016 167.48 Q 299.121 167.48 303.271 164.404 L 303.271 164.404 L 303.271 164.404 Q 307.422 161.328 307.422 156.348 Z  M 358.594 53.906 L 386.816 53.906 L 386.816 79.883 L 404.883 79.883 L 404.883 100.586 L 386.816 100.586 L 386.816 153.32 L 386.816 153.32 Q 386.816 159.18 389.063 161.719 L 389.063 161.719 L 389.063 161.719 Q 391.309 164.258 397.656 164.258 L 397.656 164.258 L 397.656 164.258 Q 402.344 164.258 405.957 163.574 L 405.957 163.574 L 405.957 184.961 L 405.957 184.961 Q 397.656 187.5 388.867 187.5 L 388.867 187.5 L 388.867 187.5 Q 359.18 187.5 358.594 157.52 L 358.594 157.52 L 358.594 100.586 L 343.164 100.586 L 343.164 79.883 L 358.594 79.883 L 358.594 53.906 L 358.594 53.906 Z  M 469.238 187.5 L 469.238 187.5 L 469.238 187.5 Q 445.996 187.5 431.396 173.242 L 431.396 173.242 L 431.396 173.242 Q 416.797 158.984 416.797 135.254 L 416.797 135.254 L 416.797 132.52 L 416.797 132.52 Q 416.797 116.602 422.949 104.053 L 422.949 104.053 L 422.949 104.053 Q 429.102 91.504 440.381 84.717 L 440.381 84.717 L 440.381 84.717 Q 451.66 77.93 466.113 77.93 L 466.113 77.93 L 466.113 77.93 Q 487.793 77.93 500.244 91.602 L 500.244 91.602 L 500.244 91.602 Q 512.695 105.273 512.695 130.371 L 512.695 130.371 L 512.695 141.895 L 445.41 141.895 L 445.41 141.895 Q 446.777 152.246 453.662 158.496 L 453.662 158.496 L 453.662 158.496 Q 460.547 164.746 471.094 164.746 L 471.094 164.746 L 471.094 164.746 Q 487.402 164.746 496.582 152.93 L 496.582 152.93 L 510.449 168.457 L 510.449 168.457 Q 504.102 177.441 493.262 182.471 L 493.262 182.471 L 493.262 182.471 Q 482.422 187.5 469.238 187.5 Z  M 466.016 100.781 L 466.016 100.781 L 466.016 100.781 Q 457.617 100.781 452.393 106.445 L 452.393 106.445 L 452.393 106.445 Q 447.168 112.109 445.703 122.656 L 445.703 122.656 L 484.961 122.656 L 484.961 120.41 L 484.961 120.41 Q 484.766 111.035 479.883 105.908 L 479.883 105.908 L 479.883 105.908 Q 475 100.781 466.016 100.781 Z  M 588.477 79.199 L 588.086 106.348 L 588.086 106.348 Q 582.324 105.566 577.93 105.566 L 577.93 105.566 L 577.93 105.566 Q 561.914 105.566 556.934 116.406 L 556.934 116.406 L 556.934 185.547 L 528.711 185.547 L 528.711 79.883 L 555.371 79.883 L 556.152 92.48 L 556.152 92.48 Q 564.648 77.93 579.688 77.93 L 579.688 77.93 L 579.688 77.93 Q 584.375 77.93 588.477 79.199 L 588.477 79.199 L 588.477 79.199 Z  M 631.445 79.883 L 631.445 185.547 L 603.125 185.547 L 603.125 79.883 L 631.445 79.883 L 631.445 79.883 Z  M 601.465 52.539 L 601.465 52.539 L 601.465 52.539 Q 601.465 46.191 605.713 42.09 L 605.713 42.09 L 605.713 42.09 Q 609.961 37.988 617.285 37.988 L 617.285 37.988 L 617.285 37.988 Q 624.512 37.988 628.809 42.09 L 628.809 42.09 L 628.809 42.09 Q 633.105 46.191 633.105 52.539 L 633.105 52.539 L 633.105 52.539 Q 633.105 58.984 628.76 63.086 L 628.76 63.086 L 628.76 63.086 Q 624.414 67.188 617.285 67.188 L 617.285 67.188 L 617.285 67.188 Q 610.156 67.188 605.811 63.086 L 605.811 63.086 L 605.811 63.086 Q 601.465 58.984 601.465 52.539 Z  M 744.434 185.547 L 715.918 185.547 L 715.918 185.547 Q 713.965 181.738 713.086 176.074 L 713.086 176.074 L 713.086 176.074 Q 702.832 187.5 686.426 187.5 L 686.426 187.5 L 686.426 187.5 Q 670.898 187.5 660.693 178.516 L 660.693 178.516 L 660.693 178.516 Q 650.488 169.531 650.488 155.859 L 650.488 155.859 L 650.488 155.859 Q 650.488 139.063 662.939 130.078 L 662.939 130.078 L 662.939 130.078 Q 675.391 121.094 698.926 120.996 L 698.926 120.996 L 711.914 120.996 L 711.914 114.941 L 711.914 114.941 Q 711.914 107.617 708.154 103.223 L 708.154 103.223 L 708.154 103.223 Q 704.395 98.828 696.289 98.828 L 696.289 98.828 L 696.289 98.828 Q 689.16 98.828 685.107 102.246 L 685.107 102.246 L 685.107 102.246 Q 681.055 105.664 681.055 111.621 L 681.055 111.621 L 652.832 111.621 L 652.832 111.621 Q 652.832 102.441 658.496 94.629 L 658.496 94.629 L 658.496 94.629 Q 664.16 86.816 674.512 82.373 L 674.512 82.373 L 674.512 82.373 Q 684.863 77.93 697.754 77.93 L 697.754 77.93 L 697.754 77.93 Q 717.285 77.93 728.76 87.744 L 728.76 87.744 L 728.76 87.744 Q 740.234 97.559 740.234 115.332 L 740.234 115.332 L 740.234 161.133 L 740.234 161.133 Q 740.332 176.172 744.434 183.887 L 744.434 183.887 L 744.434 185.547 L 744.434 185.547 Z  M 692.578 165.918 L 692.578 165.918 L 692.578 165.918 Q 698.828 165.918 704.102 163.135 L 704.102 163.135 L 704.102 163.135 Q 709.375 160.352 711.914 155.664 L 711.914 155.664 L 711.914 137.5 L 701.367 137.5 L 701.367 137.5 Q 680.176 137.5 678.809 152.148 L 678.809 152.148 L 678.711 153.809 L 678.711 153.809 Q 678.711 159.082 682.422 162.5 L 682.422 162.5 L 682.422 162.5 Q 686.133 165.918 692.578 165.918 Z " fill="rgb(19,20,20)"/></g></svg>