<?xml version="1.0" encoding="UTF-8" standalone="no"?><!-- Generator: Gravit.io --><svg xmlns="http://www.w3.org/2000/svg" xmlns:xlink="http://www.w3.org/1999/xlink" style="isolation:isolate" viewBox="0 0 216 99" width="216pt" height="99pt"><defs><clipPath id="_clipPath_awBzJ6ItLpZCSA7AOHpzRYPKZpgRWbH7"><rect width="216" height="99"/></clipPath></defs><g clip-path="url(#_clipPath_awBzJ6ItLpZCSA7AOHpzRYPKZpgRWbH7)"><path d=" M 29.79 73.93 L 14.67 35.29 L 14.67 35.29 Q 13.13 31.44 11.52 29.83 L 11.52 29.83 L 11.52 29.83 Q 9.91 28.22 7.74 27.94 L 7.74 27.94 L 7.74 26.54 L 10.68 26.4 L 10.68 26.4 Q 15.37 26.4 18.87 28.115 L 18.87 28.115 L 18.87 28.115 Q 22.37 29.83 24.54 35.29 L 24.54 35.29 L 33.99 59.44 L 40.29 41.52 L 37.84 35.29 L 37.84 35.29 Q 36.3 31.51 34.515 29.865 L 34.515 29.865 L 34.515 29.865 Q 32.73 28.22 30.42 27.94 L 30.42 27.94 L 30.42 26.54 L 33.15 26.4 L 33.15 26.4 Q 37.84 26.4 41.34 28.15 L 41.34 28.15 L 41.34 28.15 Q 44.84 29.9 47.01 35.29 L 47.01 35.29 L 57.02 60.77 L 68.99 27.1 L 72.35 27.1 L 55.76 73.93 L 52.96 73.93 L 42.18 46.49 L 32.59 73.93 L 29.79 73.93 L 29.79 73.93 Z  M 93.35 73.3 L 93.35 54.82 L 80.96 36.2 L 80.96 36.2 Q 78.86 33.19 76.375 30.95 L 76.375 30.95 L 76.375 30.95 Q 73.89 28.71 71.65 28.5 L 71.65 28.5 L 71.65 27.1 L 79.28 27.1 L 79.28 27.1 Q 82.85 27.1 85.755 29.34 L 85.755 29.34 L 85.755 29.34 Q 88.66 31.58 90.69 34.8 L 90.69 34.8 L 100.21 49.15 L 113.79 27.1 L 118.34 27.1 L 102.45 52.93 L 102.45 73.3 L 93.35 73.3 L 93.35 73.3 Z  M 157.68 74 L 157.68 74 Q 153.83 74 150.68 71.725 L 150.68 71.725 L 150.68 71.725 Q 147.53 69.45 144.1 63.85 L 144.1 63.85 L 137.1 52.16 L 134.3 52.16 L 134.3 73.3 L 125.13 73.3 L 125.13 36.2 L 125.13 36.2 Q 125.13 32.63 124.15 30.915 L 124.15 30.915 L 124.15 30.915 Q 123.17 29.2 120.23 29.2 L 120.23 29.2 L 119.53 29.2 L 119.53 27.1 L 138.85 27.1 L 138.85 27.1 Q 146.13 27.1 151.94 29.76 L 151.94 29.76 L 151.94 29.76 Q 157.75 32.42 157.75 39.98 L 157.75 39.98 L 157.75 39.98 Q 157.75 48.73 146.41 51.6 L 146.41 51.6 L 153.76 63.85 L 153.76 63.85 Q 157.89 70.78 162.44 71.55 L 162.44 71.55 L 162.44 73.3 L 162.44 73.3 Q 161.88 73.58 160.41 73.79 L 160.41 73.79 L 160.41 73.79 Q 158.94 74 157.68 74 L 157.68 74 L 157.68 74 Z  M 134.3 49.36 L 138.5 49.36 L 138.5 49.36 Q 142.42 49.36 145.185 47.015 L 145.185 47.015 L 145.185 47.015 Q 147.95 44.67 147.95 39.63 L 147.95 39.63 L 147.95 39.63 Q 147.95 34.66 145.22 32.28 L 145.22 32.28 L 145.22 32.28 Q 142.49 29.9 138.85 29.9 L 138.85 29.9 L 138.85 29.9 Q 136.82 29.9 135.7 30.18 L 135.7 30.18 L 134.3 30.39 L 134.3 49.36 L 134.3 49.36 Z  M 168.25 73.3 L 168.25 36.2 L 168.25 36.2 Q 168.25 32.63 167.27 30.915 L 167.27 30.915 L 167.27 30.915 Q 166.29 29.2 163.35 29.2 L 163.35 29.2 L 162.65 29.2 L 162.65 27.1 L 193.52 27.1 L 193.52 27.1 Q 199.47 27.1 199.47 32.7 L 199.47 32.7 L 199.47 38.65 L 197.37 38.65 L 197.37 38.65 Q 197.37 34.31 195.165 32.28 L 195.165 32.28 L 195.165 32.28 Q 192.96 30.25 188.62 30.25 L 188.62 30.25 L 177.35 30.25 L 177.35 47.75 L 195.55 47.75 L 195.55 50.9 L 177.35 50.9 L 177.35 70.15 L 189.32 70.15 L 189.32 70.15 Q 193.31 70.15 195.97 68.365 L 195.97 68.365 L 195.97 68.365 Q 198.63 66.58 200.38 62.17 L 200.38 62.17 L 202.27 62.87 L 200.24 68.4 L 200.24 68.4 Q 199.33 70.92 198.07 72.11 L 198.07 72.11 L 198.07 72.11 Q 196.81 73.3 194.15 73.3 L 194.15 73.3 L 168.25 73.3 L 168.25 73.3 Z " fill="rgb(255,255,255)"/></g></svg>